# xmcd CD Database Entry
#
# Track frame offsets:
# 150
# 22909
# 45647
# 66047
# 95765
# 115762
# 142054
# 173216
# 191368
# 220437
# 244324
# 263799
#
# Disc length: 3898 seconds
#
# Revision: 1
# Processed by: cddbd v1.4PL0 Copyright (c) Steve Scherf et al.
# Submitted via: tcd 2.0b
#
DISCID=ae0f380c
DTITLE=Etta James    Time after time
DYEAR=1900
DGENRE=
TTITLE0=Don't go to strangers
TTITLE1=Teach me tonight
TTITLE2=Love is here to stay
TTITLE3=The nearness of you
TTITLE4=Time after time
TTITLE5=My funny valentine
TTITLE6=Imagination
TTITLE7=Fool that i am
TTITLE8=Willow weep for me
TTITLE9=Ev'rybody's somebody's fool
TTITLE10=Night and day
TTITLE11=Someone to watch over me
EXTD=
EXTT0=
EXTT1=
EXTT2=
EXTT3=
EXTT4=
EXTT5=
EXTT6=
EXTT7=
EXTT8=
EXTT9=
EXTT10=
EXTT11=
PLAYORDER=
